<svg width="30" height="22" viewBox="0 0 30 22" fill="none" xmlns="http://www.w3.org/2000/svg">
<path d="M1.875 1.375V19.9375C1.875 20.1198 1.97377 20.2947 2.14959 20.4236C2.3254 20.5526 2.56386 20.625 2.8125 20.625H28.125" stroke="white" stroke-linecap="round" stroke-linejoin="round"/>
<path d="M9.14063 9.625H6.79688C6.14967 9.625 5.625 10.0098 5.625 10.4844V17.0156C5.625 17.4902 6.14967 17.875 6.79688 17.875H9.14063C9.78783 17.875 10.3125 17.4902 10.3125 17.0156V10.4844C10.3125 10.0098 9.78783 9.625 9.14063 9.625Z" stroke="white" stroke-linecap="round" stroke-linejoin="round"/>
<path d="M17.5781 7.5625H15.2344C14.5872 7.5625 14.0625 7.94726 14.0625 8.42188V17.0156C14.0625 17.4902 14.5872 17.875 15.2344 17.875H17.5781C18.2253 17.875 18.75 17.4902 18.75 17.0156V8.42188C18.75 7.94726 18.2253 7.5625 17.5781 7.5625Z" stroke="white" stroke-linecap="round" stroke-linejoin="round"/>
<path d="M25.9946 4.8125H23.6509C23.0037 4.8125 22.479 5.19726 22.479 5.67188V17.0156C22.479 17.4902 23.0037 17.875 23.6509 17.875H25.9946C26.6418 17.875 27.1665 17.4902 27.1665 17.0156V5.67188C27.1665 5.19726 26.6418 4.8125 25.9946 4.8125Z" stroke="white" stroke-linecap="round" stroke-linejoin="round"/>
</svg>
