<svg width="39" height="30" viewBox="0 0 39 30" fill="none" xmlns="http://www.w3.org/2000/svg">
<g id="&#240;&#159;&#166;&#134; icon &#34;group&#34;">
<path id="Vector" d="M0.879883 28.5524V26.9266C0.879883 20.6411 6.15336 15.5457 12.6585 15.5457C19.1637 15.5457 24.4371 20.6411 24.4371 26.9266V28.5524" stroke="black" stroke-linecap="round"/>
<path id="Vector_2" d="M21.0718 18.7973C21.0718 14.3077 24.8386 10.6681 29.4851 10.6681C34.1316 10.6681 37.8984 14.3077 37.8984 18.7973V19.6103" stroke="black" stroke-linecap="round"/>
<path id="Vector_3" d="M12.6584 15.5456C16.3755 15.5456 19.389 12.6339 19.389 9.04226C19.389 5.45054 16.3755 2.53888 12.6584 2.53888C8.94115 2.53888 5.92773 5.45054 5.92773 9.04226C5.92773 12.6339 8.94115 15.5456 12.6584 15.5456Z" stroke="black" stroke-linecap="round" stroke-linejoin="round"/>
<path id="Vector_4" d="M29.4852 10.6681C32.2732 10.6681 34.5332 8.48437 34.5332 5.79059C34.5332 3.09681 32.2732 0.913055 29.4852 0.913055C26.6972 0.913055 24.4373 3.09681 24.4373 5.79059C24.4373 8.48437 26.6972 10.6681 29.4852 10.6681Z" stroke="black" stroke-linecap="round" stroke-linejoin="round"/>
</g>
</svg>
