<svg width="42" height="41" viewBox="0 0 42 41" fill="none" xmlns="http://www.w3.org/2000/svg">
<g id="&#240;&#159;&#166;&#134; icon &#34;settings&#34;">
<path id="Vector" d="M21.0387 25.9739C24.3788 25.9739 27.0863 23.3578 27.0863 20.1305C27.0863 16.9031 24.3788 14.287 21.0387 14.287C17.6985 14.287 14.991 16.9031 14.991 20.1305C14.991 23.3578 17.6985 25.9739 21.0387 25.9739Z" stroke="black" stroke-linecap="round" stroke-linejoin="round"/>
<path id="Vector_2" d="M36.4048 17.005L34.1919 11.8421L37.166 8.4435L33.1342 4.54784L29.636 7.43637L24.1792 5.26803L22.9243 0.652191H18.9846L17.7108 5.32918L12.3794 7.50067L8.94346 4.54784L4.91167 8.4435L7.84151 11.9279L5.66259 17.1041L0.879883 18.1826V22.0783L5.72027 23.3551L7.96726 28.5055L4.91167 31.8174L8.94346 35.7131L12.5543 32.8698L17.8074 34.9579L19.0229 39.6087H23.0547L24.2733 34.9596L29.6167 32.8215C30.5073 33.4366 33.1342 35.7131 33.1342 35.7131L37.166 31.8174L34.1742 28.4075L36.3876 23.2431L41.1976 22.0339L41.1978 18.1826L36.4048 17.005Z" stroke="black" stroke-linecap="round" stroke-linejoin="round"/>
</g>
</svg>
