<svg width="28" height="22" viewBox="0 0 28 22" fill="none" xmlns="http://www.w3.org/2000/svg">
<path d="M1 20.8657V19.6971C1 15.1794 4.66233 11.5171 9.18003 11.5171C13.6977 11.5171 17.3601 15.1794 17.3601 19.6971V20.8657" stroke="white" stroke-linecap="round"/>
<path d="M15.0229 13.8544C15.0229 10.6274 17.6389 8.01147 20.8658 8.01147C24.0927 8.01147 26.7087 10.6274 26.7087 13.8544V14.4386" stroke="white" stroke-linecap="round"/>
<path d="M9.17992 11.5171C11.7614 11.5171 13.8542 9.42426 13.8542 6.84276C13.8542 4.26121 11.7614 2.16846 9.17992 2.16846C6.59837 2.16846 4.50562 4.26121 4.50562 6.84276C4.50562 9.42426 6.59837 11.5171 9.17992 11.5171Z" stroke="white" stroke-linecap="round" stroke-linejoin="round"/>
<path d="M20.8658 8.01146C22.802 8.01146 24.3716 6.44188 24.3716 4.50573C24.3716 2.56957 22.802 1 20.8658 1C18.9296 1 17.3601 2.56957 17.3601 4.50573C17.3601 6.44188 18.9296 8.01146 20.8658 8.01146Z" stroke="white" stroke-linecap="round" stroke-linejoin="round"/>
</svg>
