<svg width="1160" height="1082" viewBox="0 0 1160 1082" fill="none" xmlns="http://www.w3.org/2000/svg">
<path d="M118.404 -10.1382L713.987 -10.5345L713.363 1075.45L120.127 1075.85L118.404 -10.1382Z" fill="#1C669F"/>
<rect x="470.64" y="-10" width="341.41" height="1092" fill="#1C669F"/>
<rect x="735" y="-10" width="462" height="1176" fill="#004589"/>
<ellipse cx="702.06" cy="540" rx="240.219" ry="730" fill="#1C669F"/>
<path d="M126.556 1196.95C142.695 1104.81 188.05 1015.39 252.644 948.361C317.238 881.335 395.78 842.193 470.992 839.546C546.203 836.9 611.923 870.965 653.695 934.249C695.466 997.533 709.866 1084.85 693.728 1176.99L410.142 1186.97L126.556 1196.95Z" fill="#3E75A1"/>
<ellipse cx="867.5" cy="288" rx="117.5" ry="128" fill="#F7C59F"/>
<path d="M717.895 -94.1383C700.02 -46.6346 689.28 0.780679 686.35 45.1241C683.421 89.4674 688.365 129.779 700.872 163.522C713.378 197.266 733.177 223.71 759.022 241.192C784.867 258.674 816.199 266.814 851.045 265.102C885.892 263.389 923.5 251.86 961.502 231.24C999.505 210.62 1037.08 181.356 1071.86 145.288C1106.64 109.221 1137.88 67.131 1163.61 21.6673C1189.33 -23.7965 1208.99 -71.6502 1221.34 -118.883L1008.19 -86.4296C1005.94 -77.8563 1002.38 -69.1703 997.706 -60.918C993.036 -52.6657 987.366 -45.0259 981.053 -38.4792C974.74 -31.9324 967.92 -26.6206 961.022 -22.8778C954.124 -19.135 947.297 -17.0424 940.972 -16.7315C934.647 -16.4206 928.96 -17.8983 924.269 -21.0714C919.578 -24.2446 915.984 -29.0446 913.714 -35.1695C911.444 -41.2943 910.546 -48.6114 911.078 -56.6603C911.61 -64.7092 913.559 -73.3157 916.804 -81.9382L717.895 -94.1383Z" fill="#3E75A1"/>
<path d="M200 1072.63C200 1116.47 166.942 1152 123.042 1152C79.1424 1152 45 1116.47 45 1072.63C45 1028.8 79.1424 990 123.042 990C166.942 990 200 1028.8 200 1072.63Z" fill="#F7C59F"/>
<path d="M969.653 849.948C960.752 830.381 957.855 827.732 969.023 821.269C980.191 814.805 980.074 818.89 989.31 838.572C995.985 853.247 989.718 866.762 989.718 866.762C989.718 866.762 976.329 864.623 969.653 849.948Z" fill="#FF9D27"/>
<path d="M991.831 826.372C979.515 815.504 978.396 813.048 971.443 820.183C964.489 827.318 967.514 828.359 979.943 838.851C989.012 846.944 999.995 844.924 999.995 844.924C999.995 844.924 1001.35 834.205 991.831 826.372Z" fill="#FF9D27"/>
<path d="M976.078 830.45C969.331 824.403 967.647 823.82 971.337 820.146C975.139 816.097 975.816 817.569 982.564 823.616C987.623 827.841 987.304 833.92 987.304 833.92C987.304 833.92 981.475 834.792 976.078 830.45Z" fill="#FDF516"/>
<path d="M966.408 823.228C957.278 825.401 958.399 827.84 959.119 845.321C959.713 858.246 967.751 863.49 967.751 863.49C967.751 863.49 975.524 854.694 974.929 841.769C974.21 824.288 975.203 820.939 966.408 823.228Z" fill="#FF9D27"/>
<path d="M971.031 833.476C970.598 823.871 971.155 822.008 966.382 823.238C961.275 824.354 961.939 825.816 962.372 835.421C962.475 842.445 967.022 845.658 967.022 845.658C967.022 845.658 971.134 840.5 971.031 833.476Z" fill="#FDF516"/>
<path d="M969.195 837.451C964.295 826.692 962.511 825.254 968.763 821.632C975.015 818.009 975.013 820.483 979.912 831.242C983.699 839.556 980.01 846.947 980.01 846.947C980.01 846.947 973.093 845.391 969.195 837.451Z" fill="#FDF516"/>
<path d="M941.517 808.685C899.873 819.707 902.897 863.015 902.897 863.015C902.897 863.015 869.927 791.286 913.98 765.917L941.517 808.685Z" fill="#3BAACF"/>
<path d="M920.851 781.868L913.701 766.279C869.943 791.241 902.784 862.85 902.784 862.85C902.784 862.85 886.295 804.288 920.851 781.868Z" fill="#428BC1"/>
<path d="M975.055 790.391C1007.49 758.706 1037.4 786.79 1037.4 786.79C1037.4 786.79 1004.22 714.675 959.882 740.179L975.055 790.391Z" fill="#3BAACF"/>
<path d="M967.287 756.104L960.048 740.347C1004.47 714.74 1037.72 787.127 1037.72 787.127C1037.72 787.127 1004.09 737.382 967.287 756.104Z" fill="#428BC1"/>
<path d="M950.468 687.876C976.466 744.984 983.335 800.411 963.238 811.968C943.141 823.525 906.796 785.047 880.351 728.197C849.741 661.681 868.481 606.061 868.481 606.061C868.481 606.061 919.747 621.733 950.468 687.876Z" fill="#C5D0D8"/>
<path d="M936.027 695.233C962.136 751.967 974.811 804.056 962.752 810.99C950.694 817.924 920.155 776.108 894.046 719.373C863.436 652.857 867.996 605.083 867.996 605.083C867.996 605.083 905.417 628.716 936.027 695.233Z" fill="#DAE3EA"/>
<path d="M980.09 798.527C981.215 800.973 980.329 803.957 978.096 805.241L951.298 820.651C949.065 821.935 946.042 820.889 944.917 818.444L940.865 809.64L975.702 789.607L980.09 798.527Z" fill="#C94747"/>
<path d="M972.163 802.776C973.289 805.222 973.296 807.692 971.956 808.462L956.772 817.194C955.432 817.964 953.638 816.522 952.513 814.076L948.462 805.273L968.112 793.973L972.163 802.776Z" fill="#F15744"/>
<path d="M978.796 812.022C979.471 813.489 978.696 816.099 977.356 816.87L959.94 826.885C958.6 827.656 956.696 826.586 956.02 825.119L953.32 819.25L976.095 806.153L978.796 812.022Z" fill="#3E4347"/>
<path d="M975.226 814.076C975.901 815.543 975.572 817.896 974.679 818.41L962.622 825.343C961.729 825.857 960.161 824.903 959.596 823.063L956.896 817.195L972.525 808.207L975.226 814.076Z" fill="#62727A"/>
<path d="M867.657 606.061C867.657 606.061 861.004 625.969 862.321 656.446L907.428 630.507C886.013 611.587 867.657 606.061 867.657 606.061Z" fill="#C94747"/>
<path d="M867.606 606.061C867.606 606.061 865.866 623.143 871.092 651.682L898.782 635.76C881.05 614.412 867.606 606.061 867.606 606.061Z" fill="#F15744"/>
<path d="M926.276 701.371C929.335 691.073 924.296 680.124 915.022 676.917C905.748 673.71 895.751 679.459 892.692 689.758C889.633 700.057 894.672 711.005 903.946 714.212C913.22 717.419 923.217 711.67 926.276 701.371Z" fill="#EDF4F9"/>
<path d="M920.567 699.397C922.585 692.6 919.26 685.374 913.139 683.257C907.018 681.141 900.42 684.935 898.401 691.732C896.383 698.53 899.708 705.756 905.829 707.872C911.95 709.989 918.548 706.195 920.567 699.397Z" fill="#3BAACF"/>
<path d="M949.318 750.281C952.376 739.982 947.338 729.033 938.064 725.826C928.79 722.619 918.792 728.368 915.734 738.667C912.675 748.966 917.714 759.914 926.988 763.121C936.261 766.328 946.259 760.579 949.318 750.281Z" fill="#EDF4F9"/>
<path d="M943.608 748.306C945.627 741.509 942.301 734.283 936.181 732.167C930.06 730.05 923.462 733.844 921.443 740.642C919.424 747.439 922.749 754.665 928.87 756.781C934.991 758.898 941.589 755.104 943.608 748.306Z" fill="#3BAACF"/>
<path d="M869.286 659.394C869.953 660.861 869.281 663.104 867.94 663.88C866.6 664.656 864.592 663.964 863.925 662.496C863.257 661.029 863.93 658.786 865.27 658.01C866.61 657.234 868.618 657.926 869.286 659.394Z" fill="white"/>
<path d="M879.553 656.07C880.048 654.418 879.25 652.666 877.771 652.157C876.293 651.648 874.693 652.575 874.198 654.227C873.704 655.879 874.502 657.631 875.98 658.14C877.459 658.648 879.059 657.722 879.553 656.07Z" fill="white"/>
<path d="M890.272 650.022C890.766 648.37 889.969 646.618 888.49 646.11C887.011 645.601 885.412 646.527 884.917 648.18C884.423 649.832 885.22 651.583 886.699 652.092C888.178 652.601 889.777 651.674 890.272 650.022Z" fill="white"/>
<path d="M900.882 644.345C901.377 642.693 900.579 640.942 899.1 640.433C897.622 639.924 896.022 640.851 895.528 642.503C895.033 644.155 895.831 645.907 897.309 646.415C898.788 646.924 900.388 645.998 900.882 644.345Z" fill="white"/>
<path d="M911.262 638.18C911.757 636.528 910.959 634.776 909.48 634.267C908.002 633.758 906.402 634.685 905.908 636.337C905.413 637.989 906.211 639.741 907.69 640.25C909.168 640.759 910.768 639.832 911.262 638.18Z" fill="white"/>
<path d="M191.896 136.305C166.884 128.485 128.481 117.633 124.113 119.203C119.745 120.772 96.242 154.144 81.4492 175.984L79.715 174.086C83.5499 168.507 117.101 118.921 123.341 116.679C129.581 114.437 185.885 131.742 192.319 133.912L191.896 136.305Z" fill="#BA9372"/>
<path d="M227.978 225.968C229.208 229.981 227.795 234.382 224.683 235.495L115.769 274.447C112.658 275.56 109.169 273.189 107.862 268.926L80.4177 179.391C79.1877 175.379 80.6009 170.977 83.7127 169.864L192.627 130.913C195.738 129.8 199.227 132.17 200.534 136.434L227.978 225.968Z" fill="#93A2AA"/>
<path d="M196.78 138.043C195.544 133.997 191.966 131.356 188.845 132.48L79.3923 171.9C76.2711 173.024 74.7781 177.211 76.091 181.51L83.428 205.535L204.117 162.068L196.78 138.043Z" fill="#ED4C5C"/>
<path d="M83.1473 204.608L103.318 270.477C104.55 274.5 108.12 277.127 111.236 276.011L220.291 236.957C223.407 235.841 224.898 231.68 223.59 227.407L203.419 161.537L83.1473 204.608Z" fill="#D9E3E8"/>
<path d="M90.1704 208.777L102.637 204.31L104.332 209.845L91.8647 214.312L90.1704 208.777ZM106.377 202.97L118.844 198.504L120.539 204.038L108.072 208.505L106.377 202.97ZM122.792 197.089L135.259 192.623L136.954 198.157L124.487 202.624L122.792 197.089ZM138.999 191.283L151.466 186.816L153.161 192.351L140.694 196.817L138.999 191.283ZM155.206 185.476L167.673 181.01L169.368 186.544L156.901 191.011L155.206 185.476ZM171.621 179.595L184.088 175.129L185.782 180.663L173.315 185.13L171.621 179.595ZM187.828 173.789L200.295 169.322L201.989 174.857L189.523 179.323L187.828 173.789ZM142.388 202.352L154.855 197.886L156.549 203.42L144.082 207.887L142.388 202.352ZM158.595 196.546L171.062 192.079L172.756 197.614L160.289 202.08L158.595 196.546ZM175.01 190.665L187.477 186.198L189.171 191.733L176.704 196.199L175.01 190.665ZM191.217 184.858L203.684 180.391L205.378 185.926L192.911 190.393L191.217 184.858ZM96.9476 230.916L109.415 226.449L111.109 231.984L98.6419 236.451L96.9476 230.916ZM113.155 225.109L125.622 220.643L127.316 226.177L114.849 230.644L113.155 225.109ZM129.569 219.228L142.036 214.762L143.731 220.296L131.264 224.763L129.569 219.228ZM145.777 213.422L158.243 208.955L159.938 214.49L147.471 218.956L145.777 213.422ZM161.984 207.615L174.451 203.149L176.145 208.683L163.678 213.15L161.984 207.615ZM178.398 201.734L190.865 197.268L192.56 202.802L180.093 207.269L178.398 201.734ZM194.605 195.928L207.072 191.461L208.767 196.996L196.3 201.462L194.605 195.928ZM100.413 242.237L112.88 237.77L114.574 243.305L102.107 247.772L100.413 242.237ZM116.62 236.43L129.087 231.964L130.781 237.498L118.315 241.965L116.62 236.43ZM133.035 230.549L145.502 226.083L147.196 231.617L134.729 236.084L133.035 230.549ZM149.242 224.743L161.709 220.276L163.403 225.811L150.936 230.277L149.242 224.743ZM165.449 218.936L177.916 214.47L179.61 220.004L167.143 224.471L165.449 218.936ZM181.864 213.055L194.331 208.589L196.025 214.123L183.558 218.59L181.864 213.055ZM198.071 207.249L210.538 202.782L212.232 208.317L199.765 212.783L198.071 207.249ZM103.802 253.306L116.269 248.84L117.963 254.375L105.496 258.841L103.802 253.306ZM120.009 247.5L132.476 243.033L134.17 248.568L121.703 253.035L120.009 247.5ZM136.424 241.619L148.891 237.152L150.585 242.687L138.118 247.154L136.424 241.619ZM152.631 235.812L165.098 231.346L166.792 236.88L154.325 241.347L152.631 235.812ZM168.838 230.006L181.305 225.539L182.999 231.074L170.532 235.54L168.838 230.006ZM185.253 224.125L197.72 219.658L199.414 225.193L186.947 229.659L185.253 224.125ZM201.46 218.318L213.927 213.851L215.621 219.386L203.154 223.853L201.46 218.318ZM107.19 264.376L119.657 259.909L121.352 265.444L108.885 269.911L107.19 264.376ZM123.397 258.569L135.864 254.103L137.559 259.637L125.092 264.104L123.397 258.569ZM139.812 252.688L152.279 248.222L153.973 253.756L141.507 258.223L139.812 252.688ZM156.019 246.882L168.486 242.415L170.181 247.95L157.714 252.416L156.019 246.882ZM172.226 241.075L184.693 236.609L186.388 242.143L173.921 246.61L172.226 241.075ZM188.641 235.194L201.108 230.728L202.802 236.262L190.335 240.729L188.641 235.194Z" fill="#93A2AA"/>
<path d="M127.172 127.583C129.23 126.847 130.246 124.122 129.441 121.497C128.636 118.871 126.314 117.339 124.256 118.075C122.197 118.811 121.181 121.536 121.986 124.161C122.791 126.787 125.113 128.319 127.172 127.583Z" fill="#333333"/>
<path d="M126.755 127.735C128.813 126.999 129.829 124.274 129.024 121.649C128.219 119.023 125.897 117.491 123.839 118.227C121.78 118.963 120.764 121.688 121.569 124.313C122.375 126.939 124.696 128.471 126.755 127.735Z" fill="#93A2AA"/>
<path d="M100.915 1104.51C118.427 1116.64 141.332 1111.51 152.076 1093.03C162.819 1074.55 157.333 1049.73 139.821 1037.59C122.31 1025.45 99.4049 1030.59 88.6613 1049.07C77.9177 1067.55 83.404 1092.37 100.915 1104.51Z" fill="#428BC1"/>
<path d="M105.221 1097.1C118.841 1106.54 136.664 1102.53 145.029 1088.14C153.395 1073.76 149.135 1054.44 135.516 1045C121.896 1035.56 104.073 1039.57 95.7074 1053.95C87.3419 1068.34 91.6013 1087.66 105.221 1097.1Z" fill="white"/>
<path d="M84.225 1069.17L70.9283 1085.36L73.3179 1087.02C74.8272 1088.07 76.4063 1086.56 78.7191 1085.02C81.6678 1082.98 89.0673 1077.54 89.0673 1077.54L84.225 1069.17ZM137.176 1105.88L129.539 1126L127.149 1124.34C125.64 1123.29 126.212 1121.09 126.513 1118.15C126.946 1114.37 128.309 1104.74 128.309 1104.74L137.176 1105.88ZM116.401 1020.81L119.287 1033.76L112.929 1035.29L110.12 1022.21L116.401 1020.81ZM163.692 1053.6L151.737 1056.25L153.176 1063.19L165.208 1060.4L163.692 1053.6Z" fill="#428BC1"/>
<path d="M96.2246 1032.03L132.248 1023.68C131.245 1018.7 128.412 1014.13 123.994 1011.06C115.283 1005.02 103.818 1007.69 98.4959 1016.85C95.7962 1021.49 95.0953 1026.97 96.2246 1032.03ZM153.883 1038.87L162.7 1077.95C167.377 1076.91 171.536 1074.03 174.235 1069.38C179.557 1060.22 176.885 1047.75 168.049 1041.62C163.553 1038.69 158.56 1037.83 153.883 1038.87Z" fill="#B0B8B8"/>
<path d="M97.5952 1075.21L118.628 1070.31L119.215 1072.94L98.2593 1077.71L97.5952 1075.21Z" fill="#ED4C5C"/>
<path d="M117.521 1075.94C120.091 1077.73 123.449 1076.98 125.021 1074.27C126.594 1071.57 125.786 1067.93 123.216 1066.15C120.646 1064.37 117.288 1065.12 115.716 1067.82C114.143 1070.53 114.951 1074.16 117.521 1075.94Z" fill="#428BC1"/>
<path d="M128.813 1050.84L133.459 1054.06L121.932 1073.88L117.286 1070.66L128.813 1050.84ZM124.084 1070.18L133.501 1076.71L130.658 1081.6L121.241 1075.07L124.084 1070.18Z" fill="#428BC1"/>
</svg>
