<svg width="1139" height="980" viewBox="0 0 1139 980" fill="none" xmlns="http://www.w3.org/2000/svg">
<path d="M105.627 -10.1914L692.987 -10.5345L692.447 1075.45L107.401 1075.79L105.627 -10.1914Z" fill="#1C669F"/>
<rect x="449.64" y="-10" width="341.41" height="1092" fill="#1C669F"/>
<rect x="714" y="-10" width="462" height="1176" fill="#004589"/>
<ellipse cx="681.06" cy="540" rx="240.219" ry="730" fill="#1C669F"/>
<path d="M126.556 1166.95C142.695 1074.81 188.05 985.388 252.644 918.361C317.238 851.335 395.78 812.193 470.992 809.546C546.203 806.9 611.923 840.965 653.695 904.249C695.466 967.533 709.866 1054.85 693.728 1146.99L410.142 1156.97L126.556 1166.95Z" fill="#3E75A1"/>
<ellipse cx="846.485" cy="295" rx="117.03" ry="135" fill="#F7C59F"/>
<path d="M696.895 -94.1383C679.02 -46.6346 668.28 0.780675 665.35 45.1241C662.421 89.4674 667.365 129.779 679.872 163.522C692.378 197.266 712.177 223.71 738.022 241.192C763.867 258.674 795.199 266.814 830.045 265.102C864.892 263.389 902.5 251.86 940.502 231.24C978.505 210.62 1016.08 181.356 1050.86 145.288C1085.64 109.221 1116.88 67.131 1142.61 21.6673C1168.33 -23.7965 1187.99 -71.6502 1200.34 -118.882L987.186 -86.4296C984.944 -77.8563 981.375 -69.1703 976.706 -60.918C972.036 -52.6657 966.366 -45.0259 960.053 -38.4792C953.74 -31.9325 946.92 -26.6206 940.022 -22.8778C933.124 -19.135 926.297 -17.0424 919.972 -16.7315C913.647 -16.4206 907.96 -17.8982 903.269 -21.0714C898.578 -24.2446 894.984 -29.0446 892.714 -35.1695C890.444 -41.2943 889.546 -48.6114 890.078 -56.6603C890.61 -64.7092 892.559 -73.3157 895.804 -81.9382L696.895 -94.1383Z" fill="#3E75A1"/>
<path d="M200 961.752C200 1008.83 162.676 1047 113.112 1047C63.5479 1047 25 1008.83 25 961.752C25 914.671 63.5479 873 113.112 873C162.676 873 200 914.671 200 961.752Z" fill="#F7C59F"/>
<path d="M948.522 770.233C940.368 752.511 937.6 750.168 948.769 743.848C959.937 737.528 959.698 741.293 968.178 759.11C974.293 772.402 967.727 785.052 967.727 785.052C967.727 785.052 954.637 783.525 948.522 770.233Z" fill="#FF9D27"/>
<path d="M970.911 748.136C959.02 738.405 957.985 736.15 950.866 743.041C943.746 749.931 946.716 750.802 958.73 760.178C967.484 767.428 978.446 765.177 978.446 765.177C978.446 765.177 980.117 755.128 970.911 748.136Z" fill="#FF9D27"/>
<path d="M954.996 752.326C948.412 746.889 946.749 746.39 950.499 742.902C954.367 739.065 955.01 740.411 961.594 745.848C966.538 749.639 966.092 755.272 966.092 755.272C966.092 755.272 960.273 756.217 954.996 752.326Z" fill="#FDF516"/>
<path d="M945.787 745.531C936.805 747.721 937.852 749.915 938.19 765.806C938.502 777.553 946.259 782.139 946.259 782.139C946.259 782.139 954.051 773.953 953.739 762.206C953.401 746.315 954.443 743.244 945.787 745.531Z" fill="#FF9D27"/>
<path d="M949.88 754.739C949.747 745.999 950.343 744.283 945.679 745.56C940.696 746.742 941.296 748.054 941.428 756.794C941.318 763.192 945.629 765.973 945.629 765.973C945.629 765.973 949.77 761.138 949.88 754.739Z" fill="#FDF516"/>
<path d="M948.124 758.724C943.636 748.982 941.927 747.716 948.177 744.176C954.427 740.635 954.351 742.912 958.839 752.655C962.307 760.183 958.46 767.109 958.46 767.109C958.46 767.109 951.713 765.905 948.124 758.724Z" fill="#FDF516"/>
<path d="M920.073 731.753C879.069 742.753 881.123 782.102 881.123 782.102C881.123 782.102 850.342 717.58 894.007 693.465L920.073 731.753Z" fill="#3BAACF"/>
<path d="M899.918 707.736L893.316 693.78C850.404 717.399 880.73 781.51 880.73 781.51C880.73 781.51 865.974 728.841 899.918 707.736Z" fill="#428BC1"/>
<path d="M953.708 716.824C986.639 686.751 1015.79 712.021 1015.79 712.021C1015.79 712.021 984.325 646.101 939.684 670.739L953.708 716.824Z" fill="#3BAACF"/>
<path d="M946.329 685.588L939.433 671.024C984.382 646.021 1016.06 712.924 1016.06 712.924C1016.06 712.924 983.514 667.204 946.329 685.588Z" fill="#428BC1"/>
<path d="M929.589 621.991C954.068 673.721 959.685 724.36 939.588 735.424C919.491 746.487 884.398 712.074 859.472 660.589C830.635 600.344 850.321 548.928 850.321 548.928C850.321 548.928 900.635 562.089 929.589 621.991Z" fill="#C5D0D8"/>
<path d="M915.082 629.071C939.678 680.457 951.102 727.9 939.043 734.538C926.985 741.176 897.698 703.567 873.102 652.181C844.265 591.935 849.776 548.042 849.776 548.042C849.776 548.042 886.245 568.825 915.082 629.071Z" fill="#DAE3EA"/>
<path d="M958.996 722.729C960.057 724.945 959.118 727.701 956.885 728.93L930.083 743.684C927.85 744.914 924.885 744.026 923.825 741.811L920.007 733.836L954.85 714.655L958.996 722.729Z" fill="#C94747"/>
<path d="M951.082 726.807C952.142 729.022 952.097 731.286 950.757 732.023L935.572 740.382C934.233 741.12 932.491 739.84 931.431 737.625L927.614 729.651L947.265 718.833L951.082 726.807Z" fill="#F15744"/>
<path d="M957.733 735.134C958.369 736.462 957.548 738.873 956.209 739.61L938.794 749.197C937.455 749.934 935.596 748.999 934.96 747.67L932.416 742.355L955.189 729.819L957.733 735.134Z" fill="#3E4347"/>
<path d="M954.168 737.099C954.804 738.427 954.43 740.591 953.537 741.083L941.483 747.719C940.59 748.21 939.062 747.373 938.543 745.7L936 740.387L951.625 731.785L954.168 737.099Z" fill="#62727A"/>
<path d="M847.485 548.928C847.485 548.928 840.493 567.329 841.152 595.232L886.259 570.401C865.502 553.562 847.485 548.928 847.485 548.928Z" fill="#C94747"/>
<path d="M847.311 548.928C847.311 548.928 845.231 564.625 849.793 590.659L877.482 575.416C860.416 556.266 847.311 548.928 847.311 548.928Z" fill="#F15744"/>
<path d="M904.95 634.922C908.189 625.411 903.442 615.495 894.348 612.773C885.254 610.051 875.257 615.555 872.018 625.066C868.78 634.577 873.526 644.493 882.62 647.215C891.714 649.937 901.711 644.433 904.95 634.922Z" fill="#EDF4F9"/>
<path d="M899.352 633.247C901.489 626.97 898.357 620.425 892.355 618.628C886.353 616.832 879.754 620.464 877.617 626.741C875.479 633.019 878.612 639.563 884.614 641.36C890.616 643.156 897.214 639.524 899.352 633.247Z" fill="#3BAACF"/>
<path d="M927.992 679.221C931.231 669.71 926.484 659.793 917.39 657.072C908.296 654.35 898.299 659.853 895.06 669.364C891.821 678.875 896.568 688.792 905.662 691.513C914.756 694.235 924.753 688.732 927.992 679.221Z" fill="#EDF4F9"/>
<path d="M922.393 677.545C924.531 671.268 921.398 664.723 915.396 662.927C909.394 661.13 902.796 664.763 900.658 671.04C898.521 677.317 901.653 683.862 907.655 685.658C913.657 687.455 920.256 683.822 922.393 677.545Z" fill="#3BAACF"/>
<path d="M848.286 597.121C848.897 598.45 848.169 600.538 846.829 601.296C845.488 602.055 843.537 601.484 842.925 600.155C842.314 598.826 843.042 596.738 844.382 595.98C845.723 595.221 847.674 595.792 848.286 597.121Z" fill="white"/>
<path d="M858.479 594.148C859.014 592.61 858.284 591.024 856.846 590.604C855.409 590.184 853.809 591.09 853.273 592.628C852.738 594.165 853.468 595.752 854.906 596.172C856.343 596.591 857.943 595.685 858.479 594.148Z" fill="white"/>
<path d="M869.197 588.67C869.733 587.133 869.002 585.546 867.565 585.127C866.128 584.707 864.528 585.613 863.992 587.15C863.456 588.688 864.187 590.275 865.625 590.694C867.062 591.114 868.662 590.208 869.197 588.67Z" fill="white"/>
<path d="M879.808 583.529C880.344 581.991 879.613 580.405 878.175 579.985C876.738 579.565 875.138 580.471 874.602 582.009C874.067 583.546 874.798 585.133 876.235 585.553C877.672 585.972 879.272 585.066 879.808 583.529Z" fill="white"/>
<path d="M890.188 577.944C890.724 576.407 889.993 574.82 888.555 574.401C887.118 573.981 885.518 574.887 884.983 576.424C884.447 577.962 885.178 579.549 886.615 579.968C888.053 580.388 889.652 579.482 890.188 577.944Z" fill="white"/>
<path d="M166.836 102.611C144.831 95.9142 111.062 86.5628 107.264 87.76C103.465 88.9571 83.399 115.501 70.7818 132.882L69.2358 131.324C72.5079 126.885 101.124 87.4229 106.551 85.7127C111.977 84.0025 161.507 98.838 167.17 100.688L166.836 102.611Z" fill="#BA9372"/>
<path d="M197.888 172.999C199.015 176.2 197.855 179.668 195.173 180.502L101.313 209.713C98.6314 210.548 95.5709 208.615 94.3742 205.215L69.2437 133.806C68.1173 130.605 69.2772 127.137 71.9589 126.303L165.819 97.0916C168.5 96.257 171.561 98.1896 172.758 101.59L197.888 172.999Z" fill="#93A2AA"/>
<path d="M170.624 102.984C169.48 99.6814 166.302 97.4823 163.582 98.3452L68.2052 128.603C65.4854 129.466 64.2392 132.839 65.455 136.348L72.2493 155.954L177.418 122.59L170.624 102.984Z" fill="#ED4C5C"/>
<path d="M71.3943 153.555L89.944 206.419C91.0768 209.648 94.2254 211.799 96.922 210.957L191.305 181.484C194.002 180.641 195.239 177.345 194.035 173.915L175.485 121.05L71.3943 153.555Z" fill="#D9E3E8"/>
<path d="M77.52 156.973L88.3204 153.597L89.8801 158.046L79.0797 161.423L77.52 156.973ZM91.5605 152.583L102.361 149.206L103.921 153.656L93.1202 157.033L91.5605 152.583ZM105.781 148.137L116.581 144.76L118.141 149.21L107.341 152.587L105.781 148.137ZM119.822 143.747L130.622 140.37L132.182 144.82L121.381 148.197L119.822 143.747ZM133.862 139.357L144.662 135.98L146.222 140.43L135.422 143.807L133.862 139.357ZM148.083 134.911L158.883 131.534L160.443 135.984L149.642 139.361L148.083 134.911ZM162.123 130.521L172.923 127.144L174.483 131.594L163.683 134.971L162.123 130.521ZM122.941 152.647L133.741 149.27L135.301 153.72L124.501 157.097L122.941 152.647ZM136.981 148.257L147.782 144.88L149.342 149.33L138.541 152.707L136.981 148.257ZM151.202 143.811L162.002 140.434L163.562 144.884L152.762 148.261L151.202 143.811ZM165.242 139.42L176.043 136.044L177.603 140.493L166.802 143.87L165.242 139.42ZM83.7589 174.773L94.5593 171.396L96.119 175.846L85.3186 179.223L83.7589 174.773ZM97.7994 170.383L108.6 167.006L110.159 171.456L99.3591 174.833L97.7994 170.383ZM112.02 165.937L122.82 162.56L124.38 167.01L113.58 170.387L112.02 165.937ZM126.06 161.547L136.861 158.17L138.42 162.62L127.62 165.997L126.06 161.547ZM140.101 157.157L150.901 153.78L152.461 158.23L141.661 161.607L140.101 157.157ZM154.321 152.71L165.122 149.334L166.681 153.783L155.881 157.16L154.321 152.71ZM168.362 148.32L179.162 144.943L180.722 149.393L169.922 152.77L168.362 148.32ZM86.9492 183.876L97.7496 180.499L99.3093 184.949L88.5089 188.326L86.9492 183.876ZM100.99 179.486L111.79 176.109L113.35 180.559L102.549 183.935L100.99 179.486ZM115.21 175.039L126.011 171.662L127.57 176.112L116.77 179.489L115.21 175.039ZM129.251 170.649L140.051 167.272L141.611 171.722L130.81 175.099L129.251 170.649ZM143.291 166.259L154.092 162.882L155.651 167.332L144.851 170.709L143.291 166.259ZM157.512 161.813L168.312 158.436L169.872 162.886L159.071 166.263L157.512 161.813ZM171.552 157.423L182.353 154.046L183.912 158.496L173.112 161.873L171.552 157.423ZM90.0686 192.776L100.869 189.399L102.429 193.849L91.6283 197.225L90.0686 192.776ZM104.109 188.385L114.91 185.008L116.469 189.458L105.669 192.835L104.109 188.385ZM118.33 183.939L129.13 180.562L130.69 185.012L119.889 188.389L118.33 183.939ZM132.37 179.549L143.171 176.172L144.73 180.622L133.93 183.999L132.37 179.549ZM146.411 175.159L157.211 171.782L158.771 176.232L147.97 179.609L146.411 175.159ZM160.631 170.713L171.432 167.336L172.991 171.786L162.191 175.163L160.631 170.713ZM174.672 166.323L185.472 162.946L187.032 167.396L176.231 170.773L174.672 166.323ZM93.1881 201.675L103.988 198.298L105.548 202.748L94.7478 206.125L93.1881 201.675ZM107.229 197.285L118.029 193.908L119.589 198.358L108.788 201.735L107.229 197.285ZM121.449 192.839L132.249 189.462L133.809 193.912L123.009 197.289L121.449 192.839ZM135.49 188.449L146.29 185.072L147.85 189.522L137.049 192.899L135.49 188.449ZM149.53 184.059L160.33 180.682L161.89 185.132L151.09 188.509L149.53 184.059ZM163.751 179.613L174.551 176.236L176.111 180.686L165.31 184.063L163.751 179.613Z" fill="#93A2AA"/>
<path d="M110.304 94.9132C112.068 94.3645 112.903 92.2319 112.17 90.1498C111.437 88.0678 109.413 86.8247 107.648 87.3733C105.884 87.922 105.049 90.0546 105.782 92.1367C106.515 94.2187 108.539 95.4618 110.304 94.9132Z" fill="#333333"/>
<path d="M109.938 95.0336C111.702 94.485 112.538 92.3524 111.805 90.2703C111.071 88.1882 109.047 86.9452 107.283 87.4938C105.519 88.0424 104.683 90.175 105.416 92.2571C106.149 94.3392 108.174 95.5823 109.938 95.0336Z" fill="#93A2AA"/>
<path d="M82.6722 1001.3C105.492 1015.48 136.055 1008.35 150.937 985.371C165.819 962.39 159.384 932.261 136.564 918.078C113.744 903.894 83.181 911.025 68.2992 934.007C53.4174 956.988 59.8524 987.116 82.6722 1001.3Z" fill="#428BC1"/>
<path d="M88.6367 992.089C106.385 1003.12 130.167 997.558 141.754 979.663C153.342 961.769 148.348 938.32 130.599 927.288C112.851 916.257 89.0691 921.82 77.4815 939.714C65.8938 957.608 70.8882 981.058 88.6367 992.089Z" fill="white"/>
<path d="M61.7862 958.735L43.6132 978.998L46.7241 980.931C48.6889 982.152 50.8329 980.26 53.9508 978.282C57.928 975.687 67.9199 968.767 67.9199 968.767L61.7862 958.735ZM130.718 1001.58L119.913 1026.42L116.802 1024.49C114.838 1023.27 115.672 1020.56 116.17 1016.96C116.872 1012.32 119.005 1000.52 119.005 1000.52L130.718 1001.58ZM106.074 898.499L109.459 914.194L100.98 916.295L97.701 900.435L106.074 898.499ZM167.638 936.765L151.703 940.451L153.375 948.862L169.417 945.012L167.638 936.765Z" fill="#428BC1"/>
<path d="M77.8357 913.426L126.318 901.756C125.147 895.643 121.514 890.101 115.708 886.482C104.262 879.347 88.8312 883.068 81.3961 894.582C77.6247 900.422 76.4989 907.21 77.8357 913.426ZM154.741 919.708L165.195 967.649C171.489 966.189 177.151 962.464 180.923 956.623C188.358 945.11 185.211 929.808 173.599 922.57C167.686 919.117 161.035 918.248 154.741 919.708Z" fill="#B0B8B8"/>
<path d="M79.274 965.297L107.344 958.525L108.033 961.722L80.07 968.329L79.274 965.297Z" fill="#ED4C5C"/>
<path d="M105.664 965.787C109.008 967.863 113.489 966.815 115.672 963.447C117.856 960.079 116.915 955.666 113.572 953.591C110.228 951.515 105.747 952.562 103.564 955.931C101.38 959.299 102.321 963.712 105.664 965.787Z" fill="#428BC1"/>
<path d="M121.48 935.008L127.502 938.748L111.559 963.347L105.537 959.608L121.48 935.008ZM114.535 958.755L126.741 966.336L122.808 972.404L110.602 964.823L114.535 958.755Z" fill="#428BC1"/>
</svg>
