<svg width="44" height="43" viewBox="0 0 44 43" fill="none" xmlns="http://www.w3.org/2000/svg">
<path d="M9.52625 10.7391C6.90671 13.566 5.4401 17.2166 5.39968 21.0109C5.30013 29.6807 12.626 36.8098 21.5988 36.8261C30.559 36.8424 37.798 29.8291 37.798 21.1739C37.798 12.6516 30.7488 5.71657 21.9785 5.52173C21.9291 5.5202 21.88 5.52828 21.8339 5.54551C21.7878 5.56274 21.7459 5.58875 21.7104 5.62199C21.675 5.65524 21.6468 5.69504 21.6277 5.73902C21.6085 5.783 21.5987 5.83026 21.5988 5.87798V12.6956" stroke="black" stroke-linecap="round" stroke-linejoin="round"/>
<path d="M19.6904 23.0187L13.0251 13.8068C12.9329 13.6791 12.8901 13.5242 12.9043 13.3692C12.9184 13.2141 12.9886 13.0688 13.1025 12.9588C13.2164 12.8487 13.3668 12.7809 13.5273 12.7672C13.6877 12.7535 13.8481 12.7949 13.9802 12.8839L23.5141 19.3242C24.0988 19.7311 24.4943 20.3441 24.6149 21.0307C24.7355 21.7172 24.5716 22.4219 24.1585 22.9926C23.7455 23.5632 23.1166 23.9537 22.4078 24.0798C21.6991 24.2058 20.9675 24.0572 20.3712 23.666C20.1076 23.4895 19.8773 23.2706 19.6904 23.0187Z" fill="black"/>
</svg>
