<svg width="30" height="30" viewBox="0 0 30 30" fill="none" xmlns="http://www.w3.org/2000/svg">
<path d="M6.61578 7.49989C4.79656 9.53171 3.77803 12.1556 3.74996 14.8827C3.68082 21.1141 8.76852 26.2382 15 26.2499C21.2226 26.2616 26.25 21.2208 26.25 14.9999C26.25 8.8745 21.3545 3.88993 15.2636 3.74989C15.2294 3.74879 15.1952 3.7546 15.1632 3.76698C15.1312 3.77936 15.1021 3.79806 15.0775 3.82195C15.0528 3.84585 15.0333 3.87445 15.02 3.90606C15.0067 3.93768 14.9999 3.97164 15 4.00594V8.90614" stroke="white" stroke-linecap="round" stroke-linejoin="round"/>
<path d="M13.6746 16.3259L9.04572 9.70485C8.98168 9.61311 8.95197 9.50176 8.9618 9.39032C8.97164 9.27887 9.02038 9.17445 9.09949 9.09534C9.1786 9.01623 9.28302 8.96748 9.39447 8.95765C9.50591 8.94782 9.61726 8.97753 9.709 9.04157L16.3301 13.6705C16.7362 13.963 17.0109 14.4036 17.0946 14.897C17.1784 15.3904 17.0645 15.897 16.7777 16.3071C16.4908 16.7173 16.0541 16.998 15.5618 17.0886C15.0696 17.1791 14.5615 17.0723 14.1475 16.7912C13.9644 16.6643 13.8045 16.5069 13.6746 16.3259Z" fill="white"/>
</svg>
