<svg width="549" height="132" viewBox="0 0 549 132" fill="none" xmlns="http://www.w3.org/2000/svg">
<g clip-path="url(#clip0_123_200)">
<rect y="0.0617676" width="549" height="131.938" rx="15" fill="white"/>
<path d="M310.382 59.0128L309.932 49.6778L326.656 32.056H335.641L320.565 48.28L316.073 53.0723L310.382 59.0128ZM303.143 67V32.056H311.18V67H303.143ZM327.055 67L314.625 51.7744L319.916 46.0336L336.49 67H327.055ZM351.754 67.3994C348.692 67.3994 345.997 66.8003 343.667 65.6022C341.371 64.4042 339.59 62.7734 338.326 60.7101C337.061 58.6134 336.429 56.2339 336.429 53.5715C336.429 50.8758 337.044 48.4963 338.276 46.433C339.54 44.3363 341.254 42.7056 343.417 41.5408C345.581 40.3427 348.027 39.7437 350.756 39.7437C353.385 39.7437 355.748 40.3094 357.844 41.441C359.974 42.5392 361.655 44.1366 362.886 46.2333C364.118 48.2966 364.733 50.776 364.733 53.6714C364.733 53.9709 364.717 54.3203 364.683 54.7197C364.65 55.0858 364.617 55.4352 364.584 55.768H342.769V51.2253H360.49L357.495 52.5731C357.495 51.1754 357.212 49.9606 356.646 48.929C356.081 47.8973 355.298 47.0986 354.3 46.5328C353.302 45.9338 352.137 45.6342 350.806 45.6342C349.474 45.6342 348.293 45.9338 347.261 46.5328C346.263 47.0986 345.481 47.9139 344.915 48.9789C344.349 50.0106 344.066 51.2419 344.066 52.673V53.871C344.066 55.3354 344.383 56.6333 345.015 57.7648C345.681 58.863 346.596 59.7117 347.761 60.3107C348.959 60.8765 350.356 61.1594 351.954 61.1594C353.385 61.1594 354.633 60.943 355.698 60.5104C356.796 60.0778 357.794 59.4288 358.693 58.5635L362.836 63.0563C361.605 64.4541 360.057 65.5357 358.194 66.3011C356.33 67.0333 354.184 67.3994 351.754 67.3994ZM383.247 67.3994C380.185 67.3994 377.489 66.8003 375.16 65.6022C372.863 64.4042 371.083 62.7734 369.818 60.7101C368.554 58.6134 367.921 56.2339 367.921 53.5715C367.921 50.8758 368.537 48.4963 369.768 46.433C371.033 44.3363 372.747 42.7056 374.91 41.5408C377.073 40.3427 379.519 39.7437 382.248 39.7437C384.877 39.7437 387.24 40.3094 389.337 41.441C391.467 42.5392 393.147 44.1366 394.379 46.2333C395.61 48.2966 396.226 50.776 396.226 53.6714C396.226 53.9709 396.209 54.3203 396.176 54.7197C396.143 55.0858 396.109 55.4352 396.076 55.768H374.261V51.2253H391.983L388.987 52.5731C388.987 51.1754 388.705 49.9606 388.139 48.929C387.573 47.8973 386.791 47.0986 385.793 46.5328C384.794 45.9338 383.629 45.6342 382.298 45.6342C380.967 45.6342 379.786 45.9338 378.754 46.5328C377.755 47.0986 376.973 47.9139 376.408 48.9789C375.842 50.0106 375.559 51.2419 375.559 52.673V53.871C375.559 55.3354 375.875 56.6333 376.507 57.7648C377.173 58.863 378.088 59.7117 379.253 60.3107C380.451 60.8765 381.849 61.1594 383.446 61.1594C384.877 61.1594 386.125 60.943 387.19 60.5104C388.289 60.0778 389.287 59.4288 390.186 58.5635L394.329 63.0563C393.098 64.4541 391.55 65.5357 389.686 66.3011C387.823 67.0333 385.676 67.3994 383.247 67.3994ZM417.285 67.3994C415.022 67.3994 413.042 66.9002 411.345 65.9018C409.647 64.9034 408.316 63.3891 407.351 61.359C406.419 59.2957 405.953 56.6998 405.953 53.5715C405.953 50.4099 406.402 47.8141 407.301 45.784C408.2 43.7539 409.498 42.2397 411.195 41.2413C412.892 40.2429 414.922 39.7437 417.285 39.7437C419.814 39.7437 422.077 40.3261 424.074 41.4909C426.104 42.6224 427.702 44.2198 428.866 46.2832C430.065 48.3466 430.664 50.776 430.664 53.5715C430.664 56.4003 430.065 58.8464 428.866 60.9098C427.702 62.9731 426.104 64.5706 424.074 65.7021C422.077 66.8336 419.814 67.3994 417.285 67.3994ZM401.41 76.6845V40.143H408.849V45.6342L408.699 53.6214L409.198 61.5587V76.6845H401.41ZM415.937 61.0096C417.235 61.0096 418.383 60.7101 419.382 60.111C420.413 59.512 421.229 58.6634 421.828 57.5651C422.46 56.4336 422.776 55.1024 422.776 53.5715C422.776 52.0074 422.46 50.6762 421.828 49.5779C421.229 48.4797 420.413 47.631 419.382 47.032C418.383 46.433 417.235 46.1334 415.937 46.1334C414.639 46.1334 413.474 46.433 412.443 47.032C411.411 47.631 410.596 48.4797 409.997 49.5779C409.398 50.6762 409.098 52.0074 409.098 53.5715C409.098 55.1024 409.398 56.4336 409.997 57.5651C410.596 58.6634 411.411 59.512 412.443 60.111C413.474 60.7101 414.639 61.0096 415.937 61.0096ZM449.205 67.3994C446.144 67.3994 443.448 66.8003 441.118 65.6022C438.822 64.4042 437.042 62.7734 435.777 60.7101C434.512 58.6134 433.88 56.2339 433.88 53.5715C433.88 50.8758 434.496 48.4963 435.727 46.433C436.992 44.3363 438.706 42.7056 440.869 41.5408C443.032 40.3427 445.478 39.7437 448.207 39.7437C450.836 39.7437 453.199 40.3094 455.296 41.441C457.426 42.5392 459.106 44.1366 460.338 46.2333C461.569 48.2966 462.185 50.776 462.185 53.6714C462.185 53.9709 462.168 54.3203 462.135 54.7197C462.101 55.0858 462.068 55.4352 462.035 55.768H440.22V51.2253H457.941L454.946 52.5731C454.946 51.1754 454.663 49.9606 454.098 48.929C453.532 47.8973 452.75 47.0986 451.751 46.5328C450.753 45.9338 449.588 45.6342 448.257 45.6342C446.926 45.6342 445.744 45.9338 444.713 46.5328C443.714 47.0986 442.932 47.9139 442.366 48.9789C441.801 50.0106 441.518 51.2419 441.518 52.673V53.871C441.518 55.3354 441.834 56.6333 442.466 57.7648C443.132 58.863 444.047 59.7117 445.212 60.3107C446.41 60.8765 447.808 61.1594 449.405 61.1594C450.836 61.1594 452.084 60.943 453.149 60.5104C454.247 60.0778 455.246 59.4288 456.144 58.5635L460.288 63.0563C459.056 64.4541 457.509 65.5357 455.645 66.3011C453.781 67.0333 451.635 67.3994 449.205 67.3994ZM467.369 67V40.143H474.807V47.7309L473.759 45.5344C474.558 43.6374 475.839 42.2064 477.603 41.2413C479.367 40.2429 481.513 39.7437 484.043 39.7437V46.9322C483.71 46.8989 483.41 46.8822 483.144 46.8822C482.878 46.849 482.595 46.8323 482.295 46.8323C480.165 46.8323 478.435 47.448 477.104 48.6794C475.806 49.8774 475.157 51.7578 475.157 54.3203V67H467.369Z" fill="#004E89"/>
<path d="M168.382 69V40.6454H157.2V34.056H187.651V40.6454H176.469V69H168.382ZM191.453 69V42.143H199.241V69H191.453ZM195.347 38.399C193.916 38.399 192.751 37.983 191.852 37.151C190.954 36.319 190.505 35.2874 190.505 34.056C190.505 32.8246 190.954 31.793 191.852 30.961C192.751 30.129 193.916 29.713 195.347 29.713C196.778 29.713 197.943 30.1123 198.841 30.911C199.74 31.6765 200.189 32.6749 200.189 33.9062C200.189 35.2042 199.74 36.2858 198.841 37.151C197.976 37.983 196.811 38.399 195.347 38.399ZM240.863 41.7437C242.993 41.7437 244.873 42.1763 246.504 43.0416C248.168 43.8736 249.466 45.1715 250.398 46.9354C251.363 48.6659 251.845 50.8957 251.845 53.6246V69H244.058V54.8227C244.058 52.6595 243.608 51.0621 242.71 50.0304C241.811 48.9987 240.547 48.4829 238.916 48.4829C237.784 48.4829 236.769 48.7491 235.871 49.2816C234.972 49.7808 234.273 50.5462 233.774 51.5779C233.275 52.6096 233.025 53.9242 233.025 55.5216V69H225.238V54.8227C225.238 52.6595 224.789 51.0621 223.89 50.0304C223.025 48.9987 221.777 48.4829 220.146 48.4829C219.015 48.4829 218 48.7491 217.101 49.2816C216.202 49.7808 215.504 50.5462 215.004 51.5779C214.505 52.6096 214.256 53.9242 214.256 55.5216V69H206.468V42.143H213.906V49.4813L212.508 47.3347C213.44 45.5043 214.755 44.1232 216.452 43.1914C218.183 42.2262 220.146 41.7437 222.343 41.7437C224.805 41.7437 226.952 42.376 228.782 43.6406C230.646 44.872 231.877 46.769 232.476 49.3315L229.731 48.5827C230.629 46.4861 232.06 44.8221 234.024 43.5907C236.021 42.3594 238.3 41.7437 240.863 41.7437ZM272.349 69.3994C269.287 69.3994 266.592 68.8003 264.262 67.6022C261.966 66.4042 260.185 64.7734 258.921 62.7101C257.656 60.6134 257.024 58.2339 257.024 55.5715C257.024 52.8758 257.639 50.4963 258.871 48.433C260.135 46.3363 261.849 44.7056 264.012 43.5408C266.176 42.3427 268.622 41.7437 271.351 41.7437C273.98 41.7437 276.343 42.3094 278.439 43.441C280.569 44.5392 282.25 46.1366 283.481 48.2333C284.713 50.2966 285.328 52.776 285.328 55.6714C285.328 55.9709 285.312 56.3203 285.278 56.7197C285.245 57.0858 285.212 57.4352 285.179 57.768H263.364V53.2253H281.085L278.09 54.5731C278.09 53.1754 277.807 51.9606 277.241 50.929C276.676 49.8973 275.893 49.0986 274.895 48.5328C273.897 47.9338 272.732 47.6342 271.401 47.6342C270.069 47.6342 268.888 47.9338 267.856 48.5328C266.858 49.0986 266.076 49.9139 265.51 50.9789C264.944 52.0106 264.661 53.2419 264.661 54.673V55.871C264.661 57.3354 264.978 58.6333 265.61 59.7648C266.276 60.863 267.191 61.7117 268.356 62.3107C269.554 62.8765 270.951 63.1594 272.549 63.1594C273.98 63.1594 275.228 62.943 276.293 62.5104C277.391 62.0778 278.389 61.4288 279.288 60.5635L283.431 65.0563C282.2 66.4541 280.652 67.5357 278.789 68.3011C276.925 69.0333 274.779 69.3994 272.349 69.3994Z" fill="black"/>
<path d="M407.205 98.15C406.585 98.15 406.04 97.995 405.57 97.685C405.11 97.375 404.805 96.96 404.655 96.44L404.82 96.065V97.16C404.82 97.47 404.74 97.71 404.58 97.88C404.42 98.04 404.195 98.12 403.905 98.12C403.605 98.12 403.375 98.04 403.215 97.88C403.055 97.71 402.975 97.47 402.975 97.16V88.25C402.975 87.94 403.055 87.705 403.215 87.545C403.375 87.385 403.605 87.305 403.905 87.305C404.205 87.305 404.435 87.385 404.595 87.545C404.765 87.705 404.85 87.94 404.85 88.25V92.15H404.67C404.83 91.66 405.14 91.265 405.6 90.965C406.06 90.665 406.595 90.515 407.205 90.515C407.855 90.515 408.42 90.67 408.9 90.98C409.38 91.29 409.755 91.73 410.025 92.3C410.295 92.86 410.43 93.535 410.43 94.325C410.43 95.105 410.295 95.785 410.025 96.365C409.755 96.935 409.375 97.375 408.885 97.685C408.405 97.995 407.845 98.15 407.205 98.15ZM406.68 96.725C407.05 96.725 407.375 96.635 407.655 96.455C407.935 96.275 408.15 96.01 408.3 95.66C408.46 95.3 408.54 94.855 408.54 94.325C408.54 93.525 408.37 92.93 408.03 92.54C407.69 92.14 407.24 91.94 406.68 91.94C406.31 91.94 405.985 92.03 405.705 92.21C405.425 92.38 405.205 92.645 405.045 93.005C404.895 93.355 404.82 93.795 404.82 94.325C404.82 95.115 404.99 95.715 405.33 96.125C405.67 96.525 406.12 96.725 406.68 96.725ZM413.683 100.82C413.463 100.82 413.283 100.76 413.143 100.64C413.003 100.53 412.918 100.38 412.888 100.19C412.868 100 412.903 99.8 412.993 99.59L414.013 97.325V98.105L411.283 91.79C411.193 91.57 411.163 91.365 411.193 91.175C411.223 90.985 411.313 90.835 411.463 90.725C411.623 90.605 411.838 90.545 412.108 90.545C412.338 90.545 412.523 90.6 412.663 90.71C412.803 90.81 412.928 91.005 413.038 91.295L415.063 96.35H414.613L416.683 91.28C416.793 91 416.923 90.81 417.073 90.71C417.223 90.6 417.423 90.545 417.673 90.545C417.893 90.545 418.068 90.605 418.198 90.725C418.328 90.835 418.408 90.985 418.438 91.175C418.468 91.355 418.433 91.555 418.333 91.775L414.688 100.1C414.558 100.38 414.418 100.57 414.268 100.67C414.118 100.77 413.923 100.82 413.683 100.82ZM424.93 98.12C424.62 98.12 424.38 98.035 424.21 97.865C424.05 97.685 423.97 97.44 423.97 97.13V88.4C423.97 88.08 424.055 87.84 424.225 87.68C424.395 87.51 424.635 87.425 424.945 87.425H428.56C429.72 87.425 430.615 87.705 431.245 88.265C431.875 88.815 432.19 89.59 432.19 90.59C432.19 91.24 432.045 91.8 431.755 92.27C431.475 92.74 431.065 93.1 430.525 93.35C429.985 93.6 429.33 93.725 428.56 93.725L428.695 93.5H429.19C429.6 93.5 429.955 93.6 430.255 93.8C430.565 94 430.835 94.315 431.065 94.745L432.19 96.83C432.31 97.04 432.365 97.245 432.355 97.445C432.345 97.645 432.27 97.81 432.13 97.94C431.99 98.06 431.785 98.12 431.515 98.12C431.245 98.12 431.025 98.065 430.855 97.955C430.685 97.835 430.535 97.655 430.405 97.415L428.89 94.625C428.71 94.285 428.495 94.06 428.245 93.95C428.005 93.83 427.695 93.77 427.315 93.77H425.89V97.13C425.89 97.44 425.81 97.685 425.65 97.865C425.49 98.035 425.25 98.12 424.93 98.12ZM425.89 92.345H428.23C428.92 92.345 429.44 92.205 429.79 91.925C430.15 91.635 430.33 91.205 430.33 90.635C430.33 90.075 430.15 89.655 429.79 89.375C429.44 89.085 428.92 88.94 428.23 88.94H425.89V92.345ZM437.303 100.85C436.763 100.85 436.238 100.8 435.728 100.7C435.228 100.6 434.773 100.445 434.363 100.235C434.173 100.135 434.043 100.015 433.973 99.875C433.913 99.735 433.893 99.59 433.913 99.44C433.943 99.3 434.003 99.175 434.093 99.065C434.193 98.955 434.313 98.88 434.453 98.84C434.593 98.8 434.738 98.82 434.888 98.9C435.328 99.12 435.743 99.26 436.133 99.32C436.533 99.39 436.873 99.425 437.153 99.425C437.823 99.425 438.323 99.26 438.653 98.93C438.993 98.61 439.163 98.13 439.163 97.49V96.14H439.298C439.148 96.65 438.833 97.06 438.353 97.37C437.883 97.67 437.348 97.82 436.748 97.82C436.088 97.82 435.513 97.67 435.023 97.37C434.533 97.06 434.153 96.63 433.883 96.08C433.613 95.53 433.478 94.89 433.478 94.16C433.478 93.61 433.553 93.115 433.703 92.675C433.863 92.225 434.083 91.84 434.363 91.52C434.653 91.2 434.998 90.955 435.398 90.785C435.808 90.605 436.258 90.515 436.748 90.515C437.368 90.515 437.908 90.67 438.368 90.98C438.838 91.28 439.143 91.68 439.283 92.18L439.133 92.555V91.49C439.133 91.18 439.213 90.945 439.373 90.785C439.543 90.625 439.773 90.545 440.063 90.545C440.363 90.545 440.593 90.625 440.753 90.785C440.913 90.945 440.993 91.18 440.993 91.49V97.265C440.993 98.455 440.678 99.35 440.048 99.95C439.418 100.55 438.503 100.85 437.303 100.85ZM437.258 96.395C437.648 96.395 437.983 96.305 438.263 96.125C438.543 95.945 438.758 95.69 438.908 95.36C439.068 95.02 439.148 94.62 439.148 94.16C439.148 93.47 438.978 92.93 438.638 92.54C438.298 92.14 437.838 91.94 437.258 91.94C436.868 91.94 436.533 92.03 436.253 92.21C435.973 92.39 435.753 92.645 435.593 92.975C435.443 93.305 435.368 93.7 435.368 94.16C435.368 94.85 435.538 95.395 435.878 95.795C436.218 96.195 436.678 96.395 437.258 96.395ZM444.016 98.12C443.736 98.12 443.521 98.04 443.371 97.88C443.221 97.72 443.146 97.5 443.146 97.22V88.205C443.146 87.915 443.226 87.695 443.386 87.545C443.546 87.385 443.766 87.305 444.046 87.305C444.296 87.305 444.491 87.355 444.631 87.455C444.781 87.545 444.916 87.705 445.036 87.935L448.741 94.79H448.261L451.966 87.935C452.086 87.705 452.216 87.545 452.356 87.455C452.496 87.355 452.691 87.305 452.941 87.305C453.221 87.305 453.436 87.385 453.586 87.545C453.736 87.695 453.811 87.915 453.811 88.205V97.22C453.811 97.5 453.736 97.72 453.586 97.88C453.446 98.04 453.231 98.12 452.941 98.12C452.661 98.12 452.446 98.04 452.296 97.88C452.146 97.72 452.071 97.5 452.071 97.22V90.275H452.401L449.251 96.02C449.151 96.19 449.046 96.315 448.936 96.395C448.826 96.475 448.676 96.515 448.486 96.515C448.296 96.515 448.141 96.475 448.021 96.395C447.901 96.305 447.796 96.18 447.706 96.02L444.526 90.26H444.886V97.22C444.886 97.5 444.811 97.72 444.661 97.88C444.521 98.04 444.306 98.12 444.016 98.12ZM463.856 98.15C463.416 98.15 462.976 98.115 462.536 98.045C462.096 97.985 461.681 97.89 461.291 97.76C460.901 97.62 460.551 97.45 460.241 97.25C460.061 97.13 459.936 96.985 459.866 96.815C459.796 96.645 459.771 96.48 459.791 96.32C459.821 96.15 459.886 96.005 459.986 95.885C460.096 95.755 460.231 95.675 460.391 95.645C460.551 95.615 460.726 95.66 460.916 95.78C461.356 96.04 461.821 96.23 462.311 96.35C462.801 96.47 463.316 96.53 463.856 96.53C464.646 96.53 465.221 96.4 465.581 96.14C465.941 95.87 466.121 95.525 466.121 95.105C466.121 94.755 465.991 94.48 465.731 94.28C465.481 94.08 465.046 93.915 464.426 93.785L462.776 93.44C461.826 93.24 461.116 92.905 460.646 92.435C460.186 91.955 459.956 91.325 459.956 90.545C459.956 90.055 460.056 89.61 460.256 89.21C460.456 88.81 460.736 88.465 461.096 88.175C461.466 87.885 461.901 87.665 462.401 87.515C462.911 87.355 463.471 87.275 464.081 87.275C464.681 87.275 465.251 87.35 465.791 87.5C466.331 87.65 466.816 87.87 467.246 88.16C467.406 88.27 467.511 88.405 467.561 88.565C467.621 88.725 467.636 88.885 467.606 89.045C467.576 89.195 467.506 89.325 467.396 89.435C467.286 89.545 467.146 89.61 466.976 89.63C466.816 89.65 466.631 89.6 466.421 89.48C466.051 89.27 465.676 89.12 465.296 89.03C464.916 88.94 464.506 88.895 464.066 88.895C463.606 88.895 463.211 88.96 462.881 89.09C462.551 89.22 462.296 89.405 462.116 89.645C461.946 89.875 461.861 90.15 461.861 90.47C461.861 90.83 461.981 91.12 462.221 91.34C462.461 91.55 462.871 91.715 463.451 91.835L465.086 92.18C466.076 92.39 466.811 92.72 467.291 93.17C467.781 93.62 468.026 94.22 468.026 94.97C468.026 95.45 467.926 95.885 467.726 96.275C467.536 96.665 467.256 97 466.886 97.28C466.526 97.56 466.091 97.775 465.581 97.925C465.071 98.075 464.496 98.15 463.856 98.15ZM472.839 98.15C472.079 98.15 471.419 97.995 470.859 97.685C470.299 97.375 469.864 96.935 469.554 96.365C469.244 95.785 469.089 95.105 469.089 94.325C469.089 93.735 469.174 93.21 469.344 92.75C469.524 92.28 469.779 91.88 470.109 91.55C470.439 91.21 470.834 90.955 471.294 90.785C471.754 90.605 472.269 90.515 472.839 90.515C473.599 90.515 474.259 90.67 474.819 90.98C475.379 91.29 475.814 91.73 476.124 92.3C476.434 92.87 476.589 93.545 476.589 94.325C476.589 94.915 476.499 95.445 476.319 95.915C476.149 96.385 475.899 96.79 475.569 97.13C475.239 97.46 474.844 97.715 474.384 97.895C473.924 98.065 473.409 98.15 472.839 98.15ZM472.839 96.725C473.209 96.725 473.534 96.635 473.814 96.455C474.094 96.275 474.309 96.01 474.459 95.66C474.619 95.3 474.699 94.855 474.699 94.325C474.699 93.525 474.529 92.93 474.189 92.54C473.849 92.14 473.399 91.94 472.839 91.94C472.469 91.94 472.144 92.03 471.864 92.21C471.584 92.38 471.364 92.645 471.204 93.005C471.054 93.355 470.979 93.795 470.979 94.325C470.979 95.115 471.149 95.715 471.489 96.125C471.829 96.525 472.279 96.725 472.839 96.725ZM479.503 98.12C479.203 98.12 478.968 98.04 478.798 97.88C478.638 97.71 478.558 97.47 478.558 97.16V92.075H477.868C477.628 92.075 477.443 92.015 477.313 91.895C477.183 91.765 477.118 91.59 477.118 91.37C477.118 91.14 477.183 90.965 477.313 90.845C477.443 90.725 477.628 90.665 477.868 90.665H479.098L478.558 91.16V90.65C478.558 89.62 478.818 88.85 479.338 88.34C479.858 87.82 480.608 87.515 481.588 87.425L482.098 87.38C482.298 87.36 482.458 87.395 482.578 87.485C482.698 87.565 482.778 87.675 482.818 87.815C482.858 87.945 482.863 88.08 482.833 88.22C482.803 88.36 482.738 88.485 482.638 88.595C482.548 88.695 482.428 88.75 482.278 88.76L482.068 88.775C481.498 88.815 481.083 88.96 480.823 89.21C480.563 89.46 480.433 89.84 480.433 90.35V90.905L480.193 90.665H481.708C481.948 90.665 482.133 90.725 482.263 90.845C482.393 90.965 482.458 91.14 482.458 91.37C482.458 91.59 482.393 91.765 482.263 91.895C482.133 92.015 481.948 92.075 481.708 92.075H480.433V97.16C480.433 97.8 480.123 98.12 479.503 98.12ZM486.477 98.15C485.827 98.15 485.282 98.04 484.842 97.82C484.412 97.6 484.092 97.28 483.882 96.86C483.672 96.43 483.567 95.9 483.567 95.27V92.075H482.787C482.547 92.075 482.362 92.015 482.232 91.895C482.102 91.765 482.037 91.59 482.037 91.37C482.037 91.14 482.102 90.965 482.232 90.845C482.362 90.725 482.547 90.665 482.787 90.665H483.567V89.3C483.567 88.99 483.647 88.755 483.807 88.595C483.977 88.435 484.212 88.355 484.512 88.355C484.812 88.355 485.042 88.435 485.202 88.595C485.362 88.755 485.442 88.99 485.442 89.3V90.665H487.032C487.272 90.665 487.457 90.725 487.587 90.845C487.717 90.965 487.782 91.14 487.782 91.37C487.782 91.59 487.717 91.765 487.587 91.895C487.457 92.015 487.272 92.075 487.032 92.075H485.442V95.165C485.442 95.645 485.547 96.005 485.757 96.245C485.967 96.485 486.307 96.605 486.777 96.605C486.947 96.605 487.097 96.59 487.227 96.56C487.357 96.53 487.472 96.51 487.572 96.5C487.692 96.49 487.792 96.53 487.872 96.62C487.952 96.7 487.992 96.87 487.992 97.13C487.992 97.33 487.957 97.51 487.887 97.67C487.827 97.82 487.712 97.925 487.542 97.985C487.412 98.025 487.242 98.06 487.032 98.09C486.822 98.13 486.637 98.15 486.477 98.15ZM491.826 98.12C491.576 98.12 491.361 98.06 491.181 97.94C491.001 97.81 490.856 97.61 490.746 97.34L488.571 91.79C488.481 91.55 488.451 91.34 488.481 91.16C488.521 90.97 488.616 90.82 488.766 90.71C488.916 90.6 489.116 90.545 489.366 90.545C489.586 90.545 489.766 90.6 489.906 90.71C490.046 90.81 490.166 91.005 490.266 91.295L492.081 96.29H491.736L493.611 91.175C493.691 90.955 493.796 90.795 493.926 90.695C494.066 90.595 494.246 90.545 494.466 90.545C494.686 90.545 494.866 90.6 495.006 90.71C495.146 90.81 495.251 90.965 495.321 91.175L497.166 96.29H496.851L498.681 91.25C498.781 90.98 498.906 90.795 499.056 90.695C499.216 90.595 499.391 90.545 499.581 90.545C499.821 90.545 500.006 90.605 500.136 90.725C500.266 90.845 500.341 91 500.361 91.19C500.381 91.37 500.346 91.57 500.256 91.79L498.096 97.34C497.996 97.6 497.851 97.795 497.661 97.925C497.481 98.055 497.266 98.12 497.016 98.12C496.766 98.12 496.546 98.055 496.356 97.925C496.176 97.795 496.036 97.6 495.936 97.34L493.971 92.135H494.826L492.906 97.325C492.806 97.595 492.666 97.795 492.486 97.925C492.306 98.055 492.086 98.12 491.826 98.12ZM504.047 98.15C503.517 98.15 503.042 98.05 502.622 97.85C502.212 97.64 501.887 97.36 501.647 97.01C501.417 96.66 501.302 96.265 501.302 95.825C501.302 95.285 501.442 94.86 501.722 94.55C502.002 94.23 502.457 94 503.087 93.86C503.717 93.72 504.562 93.65 505.622 93.65H506.372V94.73H505.637C505.017 94.73 504.522 94.76 504.152 94.82C503.782 94.88 503.517 94.985 503.357 95.135C503.207 95.275 503.132 95.475 503.132 95.735C503.132 96.065 503.247 96.335 503.477 96.545C503.707 96.755 504.027 96.86 504.437 96.86C504.767 96.86 505.057 96.785 505.307 96.635C505.567 96.475 505.772 96.26 505.922 95.99C506.072 95.72 506.147 95.41 506.147 95.06V93.335C506.147 92.835 506.037 92.475 505.817 92.255C505.597 92.035 505.227 91.925 504.707 91.925C504.417 91.925 504.102 91.96 503.762 92.03C503.432 92.1 503.082 92.22 502.712 92.39C502.522 92.48 502.352 92.505 502.202 92.465C502.062 92.425 501.952 92.345 501.872 92.225C501.792 92.095 501.752 91.955 501.752 91.805C501.752 91.655 501.792 91.51 501.872 91.37C501.952 91.22 502.087 91.11 502.277 91.04C502.737 90.85 503.177 90.715 503.597 90.635C504.027 90.555 504.417 90.515 504.767 90.515C505.487 90.515 506.077 90.625 506.537 90.845C507.007 91.065 507.357 91.4 507.587 91.85C507.817 92.29 507.932 92.86 507.932 93.56V97.16C507.932 97.47 507.857 97.71 507.707 97.88C507.557 98.04 507.342 98.12 507.062 98.12C506.782 98.12 506.562 98.04 506.402 97.88C506.252 97.71 506.177 97.47 506.177 97.16V96.44H506.297C506.227 96.79 506.087 97.095 505.877 97.355C505.677 97.605 505.422 97.8 505.112 97.94C504.802 98.08 504.447 98.15 504.047 98.15ZM510.795 98.12C510.485 98.12 510.245 98.04 510.075 97.88C509.915 97.71 509.835 97.47 509.835 97.16V91.49C509.835 91.18 509.915 90.945 510.075 90.785C510.235 90.625 510.46 90.545 510.75 90.545C511.04 90.545 511.265 90.625 511.425 90.785C511.585 90.945 511.665 91.18 511.665 91.49V92.435H511.515C511.655 91.835 511.93 91.38 512.34 91.07C512.75 90.76 513.295 90.575 513.975 90.515C514.185 90.495 514.35 90.55 514.47 90.68C514.6 90.8 514.675 90.99 514.695 91.25C514.715 91.5 514.655 91.705 514.515 91.865C514.385 92.015 514.185 92.105 513.915 92.135L513.585 92.165C512.975 92.225 512.515 92.415 512.205 92.735C511.895 93.045 511.74 93.485 511.74 94.055V97.16C511.74 97.47 511.66 97.71 511.5 97.88C511.34 98.04 511.105 98.12 510.795 98.12ZM519.207 98.15C518.377 98.15 517.662 97.995 517.062 97.685C516.462 97.375 515.997 96.935 515.667 96.365C515.347 95.795 515.187 95.12 515.187 94.34C515.187 93.58 515.342 92.915 515.652 92.345C515.972 91.775 516.407 91.33 516.957 91.01C517.517 90.68 518.152 90.515 518.862 90.515C519.382 90.515 519.847 90.6 520.257 90.77C520.677 90.94 521.032 91.185 521.322 91.505C521.622 91.825 521.847 92.215 521.997 92.675C522.157 93.125 522.237 93.635 522.237 94.205C522.237 94.385 522.172 94.525 522.042 94.625C521.922 94.715 521.747 94.76 521.517 94.76H516.702V93.68H520.917L520.677 93.905C520.677 93.445 520.607 93.06 520.467 92.75C520.337 92.44 520.142 92.205 519.882 92.045C519.632 91.875 519.317 91.79 518.937 91.79C518.517 91.79 518.157 91.89 517.857 92.09C517.567 92.28 517.342 92.555 517.182 92.915C517.032 93.265 516.957 93.685 516.957 94.175V94.28C516.957 95.1 517.147 95.715 517.527 96.125C517.917 96.525 518.487 96.725 519.237 96.725C519.497 96.725 519.787 96.695 520.107 96.635C520.437 96.565 520.747 96.45 521.037 96.29C521.247 96.17 521.432 96.12 521.592 96.14C521.752 96.15 521.877 96.205 521.967 96.305C522.067 96.405 522.127 96.53 522.147 96.68C522.167 96.82 522.137 96.965 522.057 97.115C521.987 97.265 521.862 97.395 521.682 97.505C521.332 97.725 520.927 97.89 520.467 98C520.017 98.1 519.597 98.15 519.207 98.15Z" fill="#979797"/>
<rect width="64.3517" height="61.1461" rx="7" transform="matrix(0.788147 0.615488 -0.743899 0.668293 96.4866 19)" fill="#004E89"/>
<path fill-rule="evenodd" clip-rule="evenodd" d="M76.5225 59.2236C76.5225 49.4608 86.6309 41.5374 99.1138 41.5374C111.619 41.5374 121.75 49.4608 121.75 59.2236C121.75 68.9865 111.619 76.9099 99.1138 76.9099C86.6309 76.9099 76.5225 68.9865 76.5225 59.2236ZM81.0462 59.2238C81.0462 67.0412 89.142 73.3728 99.1374 73.3728C109.133 73.3728 117.229 67.0412 117.229 59.2238C117.229 51.4065 109.133 45.0748 99.1374 45.0748C89.142 45.0748 81.0462 51.4065 81.0462 59.2238Z" fill="white"/>
<path d="M98.1566 68.351L101.549 68.3317L101.45 57.7202L89.5258 52.2168L87.85 54.4018L98.0701 59.066L98.1566 68.351Z" fill="white"/>
</g>
<defs>
<clipPath id="clip0_123_200">
<rect y="0.0617676" width="549" height="131.938" rx="15" fill="white"/>
</clipPath>
</defs>
</svg>
